# xmcd CD database file
#
# Track frame offsets:
#	150
#	5625
#	29574
#	34725
#	69528
#	74522
#	103244
#	111599
#	139651
#
# Disc length: 2216 seconds
#
# Revision: 0
# Processed by: cddbd v1.5.2PL0 Copyright (c) Steve Scherf et al.
# Submitted via: CDex 1.51
#
DISCID=8808a609
DTITLE=The Infinite Ensemble - The Infinite Ensemble
DYEAR=2010
DGENRE=Jazz
TTITLE0=Interlude #1
TTITLE1=Don't Look Back
TTITLE2=Interlude #2
TTITLE3=H.G.H.
TTITLE4=Interlude #3
TTITLE5=Bad Hallucinations
TTITLE6=Interlude #4
TTITLE7=Plight of the Moomba
TTITLE8=Infinity
EXTD=YEAR: 2010
EXTT0=
EXTT1=
EXTT2=
EXTT3=
EXTT4=
EXTT5=
EXTT6=
EXTT7=
EXTT8=
PLAYORDER=
